<?xml version="1.0" encoding="UTF-8"?>
<!DOCTYPE svg PUBLIC "-//W3C//DTD SVG 1.1//EN" "http://www.w3.org/Graphics/SVG/1.1/DTD/svg11.dtd">
<!-- Creator: CorelDRAW 2021 (64-Bit) -->
<svg xmlns="http://www.w3.org/2000/svg" xml:space="preserve" width="297mm" height="210mm" version="1.1" style="shape-rendering:geometricPrecision; text-rendering:geometricPrecision; image-rendering:optimizeQuality; fill-rule:evenodd; clip-rule:evenodd"
viewBox="0 0 29700 21000"
 xmlns:xlink="http://www.w3.org/1999/xlink"
 xmlns:xodm="http://www.corel.com/coreldraw/odm/2003">
 <defs>
  <style type="text/css">
   <![CDATA[
    .fil0 {fill:#0E113E}
   ]]>
  </style>
 </defs>
 <g id="Layer_x0020_1">
  <metadata id="CorelCorpID_0Corel-Layer"/>
  <g id="_1480031910800">
   <path class="fil0" d="M12782.38 8177.96c155.99,-12.98 440.09,-129.18 595.16,-180.86l1168.75 -383.28c404.83,-109.48 1023.99,-359.43 1441.49,-498.54 92.69,-30.88 190.89,-48.98 300.68,-87.32 1459.13,-509.54 928.38,-481.48 2344.82,-9.54l2910.21 969.86c167.15,55.74 462.32,176.43 621.61,189.68l-4691.36 1606.57 -1150.71 -385.31c-284.28,-94.79 -3389.08,-1138.1 -3540.65,-1150.71l0 -70.55zm13932.98 3257.66l0 105.84c-13.89,136.21 -84.27,266.06 -240.19,382.2 -104.7,78 -732.52,277.76 -880.96,318.33 -147.35,40.27 -288.82,92.12 -452.84,146.81l-4553.54 1513.48c-1246.76,474.54 -1183.9,302.66 -1627.6,-297.23l-1521.76 -2217.21c-32,119.81 -167.11,286.39 -239.95,394.97l-1466.59 2201.83c-86.23,108.8 -227.87,189.79 -409.86,189.79 -143.15,0 -1232.65,-350.06 -1440.87,-428.62l-1367.5 -466.72c-550.56,-194.32 -3872.61,-1217.95 -4061.07,-1371.02 -142.92,-116.08 -207.93,-242.3 -220.51,-373.7l0 -99.61c26.33,-291.13 271.35,-600.99 473.44,-878.6 193.71,-266.1 336.73,-511.75 529.1,-776.01 104.66,-143.77 177.21,-249.59 274.3,-395.89 126.62,-190.81 769.01,-1076.23 769.01,-1171.03 0,-96.45 -909.49,-1381.6 -1036.83,-1573.39 -97.86,-147.4 -177.98,-248.47 -275.32,-394.87 -219.56,-330.25 -733.7,-950.31 -733.7,-1312.16 0,-437.44 364.83,-503.77 639.41,-595.15l5511.46 -1825.4c1110.25,-370.2 1117.05,-434.3 1637.51,346.45 163.29,244.96 327.1,465.62 480.71,718.59 107.81,177.55 889.76,1365.42 972.53,1426.06 104.4,-76.49 1287.08,-1895.43 1467.34,-2165.82 511.98,-767.94 534.07,-688.73 1650.02,-316.63l3677.09 1225.92c341.03,113.71 2078.3,632.21 2258.24,775.27 172.96,137.51 188.93,303.43 188.93,516.53 0,297.52 -2045.85,2971.51 -2045.85,3174.6 0,66.74 1412.31,2124.09 1572.18,2343.17 194.07,265.97 445.57,582.77 473.67,879.22z"/>
   <path class="fil0" d="M15286.79 15232.63c-594.82,0 -4488.59,-1508.31 -4867.72,-1516.75l0 3209.87c0,370.01 404.55,482.21 639.38,559.91l2483.48 832.22c84.15,28.08 158.11,61.95 231.92,85.54l3664.62 1203.11c173.85,0 1573.48,-494.96 1847.52,-586.34 505.25,-168.47 4776.23,-1559 5009,-1692.94 111.79,-64.33 233.42,-251.9 233.42,-401.5l0 -3209.87c-169.7,3.78 -3161.6,1024.36 -3593.39,1168.5 -887.19,296.18 -1825.3,732.31 -2620.25,-351.68 -88.4,-120.54 -773.5,-1101.64 -805.76,-1240.1l-70.54 0c-29.9,128.34 -303.53,490.61 -395.04,627.89 -139.09,208.65 -264.68,413.06 -410.72,612.21 -280.58,382.6 -696.05,699.93 -1345.92,699.93z"/>
   <path class="fil0" d="M17121.01 1229.11c-92.58,-97.59 -203.27,-182.21 -309.04,-290.61 -213.71,-219.04 -782.24,-873.41 -996.08,-873.41 -211.99,0 -317.46,162.68 -317.46,388.01 0,211.42 732.96,856.41 908.29,1031.74 177.71,177.71 820.77,908.29 1031.75,908.29 297.04,0 407.67,-213.67 626.1,-432.1 173.22,-173.22 320.6,-320.6 493.83,-493.82 180.6,-180.61 925.92,-833.66 925.92,-1049.39 0,-167.22 -172.19,-352.73 -352.73,-352.73 -276.56,0 -932.95,914.81 -1305.12,1164.02l1.99 -5645.72c-0.48,-262.36 -106.78,-456.57 -354.72,-456.57 -481.44,0 -352.73,757.49 -352.73,1234.57l0 4867.72z"/>
  </g>
 </g>
</svg>
